<svg width="122" height="173" viewBox="0 0 122 173" xmlns="http://www.w3.org/2000/svg" xmlns:xlink="http://www.w3.org/1999/xlink"><title>body</title><defs><path id="a" d="M95.858 182.98c18.03 0 60.5-36.488 60.5-81.5 0-45.01-27.087-81.5-60.5-81.5-33.414 0-60.5 36.49-60.5 81.5 0 45.012 42.47 81.5 60.5 81.5z"/></defs><g fill="none" fill-rule="evenodd"><g transform="rotate(-28 38.29 161.984)"><use stroke="#936A06" stroke-width="3" fill="#FFE11B" transform="rotate(34 95.858 101.48)" xlink:href="#a"/><path d="M32.293 109.654a104.34 104.34 0 0 0 .19 14.406c16.224 36.58 48.957 43.112 71.845 42.695a101.454 101.454 0 0 0 11.948-5.373c-56.65 5.373-78.907-30.455-83.983-51.728z" fill="#000"/><path d="M35.34 90.567a89.067 89.067 0 0 0-2.012 9.404c20.394 46.227 66.24 54.847 92.155 55.826 6.073-4.195 11.71-9.214 16.548-15.13-.74.158-1.496.32-2.27.488-65.86 14.27-96.89-35.937-104.42-50.587zm2.482 58.845c3.397 9.463 7.923 16.573 12.46 19.635 6.072 4.095 18.85 5.454 33.57 3.125-22.658-.607-35.443-10.778-46.03-22.76z" fill="#000"/></g><path d="M47.688 160.453s2.95 2.158 3.423 4.874c1.017 5.83 2.4 7.367 4.593 7.297 2.513-.08 2.022-2.084 3.454-7.297.4-1.456 3.56-4.874 3.56-4.874h-15.03z" fill="#000"/></g></svg>