<svg width="199" height="200" viewBox="0 0 199 200" xmlns="http://www.w3.org/2000/svg"><title>head</title><defs><linearGradient x1="50%" y1="18.45%" x2="50%" y2="100%" id="a"><stop stop-color="#FFF649" offset="0%"/><stop stop-color="#FFD500" offset="100%"/></linearGradient></defs><g fill="none" fill-rule="evenodd"><circle fill="url(#a)" cx="100" cy="100" r="97"/><path d="M99.5 199c54.952 0 99.5-44.548 99.5-99.5S154.452 0 99.5 0 0 44.548 0 99.5 44.548 199 99.5 199zm-.5-5.5c51.64 0 93.5-41.86 93.5-93.5s-37.354-56.637-88.992-56.637C51.868 43.363 5.5 48.36 5.5 100c0 51.64 41.86 93.5 93.5 93.5z" fill="#825F09"/><path d="M99.5 199c54.952 0 99.5-44.548 99.5-99.5S154.452 0 99.5 0 0 44.548 0 99.5 44.548 199 99.5 199zm-.5-2.818c53.483 0 96.84-43.357 96.84-96.84 0-53.484-38.688-64.66-92.17-64.66-53.484 0-101.51 11.176-101.51 64.66 0 53.483 43.357 96.84 96.84 96.84z" fill="#533C03"/><path d="M99.5 200c54.952 0 99.5-44.772 99.5-100S154.452 0 99.5 0 0 44.772 0 100s44.548 100 99.5 100zm0-3c53.304 0 96.515-43.428 96.515-97S152.305 4.42 99 4.42C45.696 4.42 2.985 46.428 2.985 100c0 53.572 43.21 97 96.515 97z" opacity=".308" fill="#000"/><ellipse fill="#FDA9ED" cx="157.5" cy="119" rx="11.5" ry="8"/><ellipse fill="#FDA9ED" cx="43.5" cy="119" rx="11.5" ry="8"/></g></svg>