<svg width="143" height="102" viewBox="0 0 143 102" xmlns="http://www.w3.org/2000/svg"><title>left-wings</title><g fill="none" fill-rule="evenodd"><path d="M56.345 62.55C20.43 51.026-3.98 18.122.538 4.794 7.182-14.812 117.766 32.05 117.766 32.05s55.67 2.112-.733 26.537c8.787-2.88 35.868-10.06 2.837 23.478-38.803 39.4-100.138 10.9-101.39-5.822-.54-7.237 17.37-11.353 37.865-13.694z" fill="#FFF"/><path d="M14.768 12.766C9.42 28.546 54 76.016 104.785 55.046s3.883-22.75 3.883-22.75-88.553-35.31-93.9-19.53zm21.585 64.45c.884 11.82 44.234 31.962 71.66 4.115 27.424-27.846-3.782-15.975-3.782-15.975s-68.762.04-67.877 11.86z" stroke="#A7E2FF" stroke-width="2" opacity=".447" fill="#E3F6FF"/></g></svg>