<svg width="65" height="17" viewBox="0 0 65 17" xmlns="http://www.w3.org/2000/svg"><title>mouth</title><g fill="none" fill-rule="evenodd"><path d="M45.704 13.952c-10.943 2.265-20.782-.106-30.504-3.05-9.723-2.946-6.156-7.047-6.156-7.047.276-.474.955-.833 1.503-.805L51.72 5.208c.554.03 1.2.443 1.408.975 0 0 3.52 5.503-7.424 7.77z" fill="#FFF"/><path d="M10.816 13.5c15.02 4.794 29.174 2.918 43.25.22 14.075-2.7 9.54-9.363 9.54-9.363-.243-.493-.895-.916-1.446-.945L3.257.325c-.556-.03-1.255.32-1.53.806 0 0-5.93 7.58 9.09 12.37zm6.854-3.54c7.6 2.426 19.993 1.55 27.116.186C51.91 8.78 49.953 8.06 49.953 8.06c-.15-.484-.725-.898-1.27-.923L14.628 5.54c-.555-.025-1.36.23-1.7.67 0 0-2.86 1.327 4.74 3.75z" fill="#000"/></g></svg>