<?xml version="1.0" encoding="UTF-8" standalone="no"?>
<svg width="65px" height="17px" viewBox="0 0 65 17" version="1.1" xmlns="http://www.w3.org/2000/svg" xmlns:xlink="http://www.w3.org/1999/xlink" xmlns:sketch="http://www.bohemiancoding.com/sketch/ns">
    <!-- Generator: Sketch 3.4.2 (15855) - http://www.bohemiancoding.com/sketch -->
    <title>mouth</title>
    <desc>Created with Sketch.</desc>
    <defs></defs>
    <g id="Page-1" stroke="none" stroke-width="1" fill="none" fill-rule="evenodd" sketch:type="MSPage">
        <g id="screen2" sketch:type="MSArtboardGroup" transform="translate(-503.000000, -277.000000)">
            <g id="bee" sketch:type="MSLayerGroup" transform="translate(391.000000, 107.000000)">
                <g id="mouth" transform="translate(112.000000, 170.000000)" sketch:type="MSShapeGroup">
                    <path d="M15.8927191,5.55549731 C26.7023955,2.72017236 36.6523301,4.57339336 46.5153632,7.00564199 C56.3783962,9.43789061 53.0311181,13.7200323 53.0311181,13.7200323 C52.7803811,14.2071087 52.1207838,14.601962 51.571959,14.601962 L10.3435727,14.601962 C9.78843838,14.601962 9.12031839,14.2227544 8.88589236,13.701826 C8.88589236,13.701826 5.0830427,8.39082227 15.8927191,5.55549731 Z" id="Rectangle-4" fill="#FFFFFF" transform="translate(30.908459, 9.363234) rotate(183.000000) translate(-30.908459, -9.363234) "></path>
                    <path d="M11.0681548,3.87377006 C26.3181548,-0.126229939 40.3552544,2.48824429 54.2697555,5.91959507 C68.1842565,9.35094584 63.3060954,15.768353 63.3060954,15.768353 C63.0384699,16.2476951 62.3655842,16.6362786 61.8136416,16.6362786 L2.8293917,16.6362786 C2.27275768,16.6362786 1.59334486,16.251952 1.34520511,15.7512208 C1.34520511,15.7512208 -4.18184515,7.87377006 11.0681548,3.87377006 Z M17.7275409,7.76777467 C25.4451469,5.74439026 37.7744174,7.26682271 44.8161641,9.00255812 C51.8579108,10.7382935 49.8668041,11.3549916 49.8668041,11.3549916 C49.6928342,11.8311037 49.0954181,12.2145412 48.5487191,12.2115134 L14.4589842,12.0227133 C13.9049959,12.0196452 13.114141,11.7230269 12.7988351,11.2674123 C12.7988351,11.2674123 10.009935,9.79115908 17.7275409,7.76777467 Z" id="Rectangle-4" fill="#000000" transform="translate(32.251956, 9.245622) scale(1, -1) rotate(-3.000000) translate(-32.251956, -9.245622) "></path>
                </g>
            </g>
        </g>
    </g>
</svg>