<svg width="143" height="102" viewBox="0 0 143 102" xmlns="http://www.w3.org/2000/svg"><title>right-wings</title><g fill="none" fill-rule="evenodd"><path d="M85.947 62.55c35.916-11.523 60.325-44.427 55.808-57.755C135.11-14.812 24.527 32.05 24.527 32.05s-55.67 2.112.733 26.537c-8.787-2.88-35.87-10.06-2.837 23.478 38.803 39.4 100.138 10.9 101.39-5.822.54-7.237-17.37-11.353-37.866-13.694z" fill="#FFF"/><path d="M127.97 12.766c5.35 15.78-39.232 63.25-90.016 42.28-50.784-20.97-3.883-22.75-3.883-22.75s88.555-35.31 93.9-19.53zm-21.584 64.45c-.884 11.82-44.234 31.962-71.66 4.115C7.303 53.486 38.51 65.357 38.51 65.357s68.763.04 67.878 11.86z" stroke="#A7E2FF" stroke-width="2" opacity=".447" fill="#E3F6FF"/></g></svg>