<?xml version="1.0" encoding="UTF-8" standalone="no"?>
<svg width="140px" height="127px" viewBox="0 0 140 127" version="1.1" xmlns="http://www.w3.org/2000/svg" xmlns:xlink="http://www.w3.org/1999/xlink" xmlns:sketch="http://www.bohemiancoding.com/sketch/ns">
    <!-- Generator: Sketch 3.4.2 (15855) - http://www.bohemiancoding.com/sketch -->
    <title>zombee</title>
    <desc>Created with Sketch.</desc>
    <defs>
        <path id="path-1" d="M64.7769478,27.7811115 C52.8025363,42.5952976 30.5023869,46.4321124 23.7703531,42.5453709 C17.4949704,38.922277 10.2678751,20.2282141 14.858471,3.30929725 C18.6199572,11.2125816 24.7322238,18.0968031 32.8850454,22.8038368 C42.9244977,28.6001173 54.2759442,30.0660096 64.7769478,27.7811115 L64.7769478,27.7811115 Z"></path>
        <path id="path-3" d="M64.7769478,27.7811115 C52.8025363,42.5952976 30.5023869,46.4321124 23.7703531,42.5453709 C17.4949704,38.922277 10.2678751,20.2282141 14.858471,3.30929725 C18.6199572,11.2125816 24.7322238,18.0968031 32.8850454,22.8038368 C42.9244977,28.6001173 54.2759442,30.0660096 64.7769478,27.7811115 L64.7769478,27.7811115 Z"></path>
    </defs>
    <g id="Page-1" stroke="none" stroke-width="1" fill="none" fill-rule="evenodd" sketch:type="MSPage">
        <g id="zombee" sketch:type="MSLayerGroup">
            <g id="wings" transform="translate(0.000000, 66.216216)" fill="#FA4F13" sketch:type="MSShapeGroup">
                <path d="M64.37017,33.5998338 C63.1315511,35.3010557 61.2871711,37.4285571 58.6754191,40.0749974 C39.6744423,59.3283381 9.65857608,45.419985 9.04946559,37.2513692 C8.78583197,33.7158501 17.5572486,31.7015961 27.5920481,30.5540593 C21.3006511,28.5419821 15.7301904,25.1923832 11.2712204,21.4216132 L11.9246745,19.0331933 L16.0302671,22.7177005 C16.0302671,22.7177005 15.6513189,19.7433518 14.8966286,19.7433518 C14.1419382,19.7433518 15.6513189,14.0742395 15.6513189,14.0742395 L13.6559099,17.8227249 L12.0022595,17.3172967 C12.0022595,17.3172967 14.6754151,15.8022919 12.1163928,15.8022919 C9.55737046,15.8022919 7.80305196,10.7454513 7.80305196,10.7454513 L8.14545185,15.0556658 L7.09317873,17.4321785 C1.78968747,11.6917334 -0.886010177,5.7254177 0.26315506,2.34189162 C1.7989357,-2.17995927 14.6781967,0.53638959 27.846326,4.6636894 C33.2263879,20.3146277 47.3425791,31.901878 64.37017,33.5998338 Z M23.986492,45.4249073 C24.7034126,45.6546219 24.8578415,46.4008126 25.6993007,46.4008126 C26.4611141,46.4008126 26.8846882,44.7671822 27.547394,44.5768332 C29.5892387,43.9903541 31.3286713,44.1226066 31.3286713,42.4933757 C31.3286713,41.9787406 29.0688198,42.2488525 28.9552147,41.634331 C28.7115175,40.3161052 30.3333758,38.104251 28.9552147,37.6997063 C28.2818049,37.5020339 26.4764411,38.5859389 25.6993007,38.5859389 C24.5894011,38.5859389 24.8584621,41.2494262 23.986492,41.6343311 C22.4159271,42.3276096 20.0699301,41.1057571 20.0699301,42.4933757 C20.0699301,44.0673231 22.0545413,44.8058746 23.986492,45.4249073 Z" id="Path-23"></path>
                <path d="M139.65375,33.3451355 C138.416423,35.087322 136.519568,37.2947988 133.775811,40.0749974 C126.808212,47.1351371 118.359479,49.7361368 110.422741,49.796167 L109.632242,46.5419993 C109.632242,46.5419993 107.776978,46.5787269 107.776978,46.0378292 C107.776978,45.4969316 107.394548,43.3385879 107.394548,43.3385879 C107.394548,43.3385879 106.949017,46.6946335 106.363899,47.4582818 C105.778781,48.22193 104.805975,46.8696859 103.870933,46.8696859 C103.263433,46.8696859 102.189201,48.0199479 101.511146,48.8258132 C91.8275473,46.6494858 84.448731,41.2594806 84.1498575,37.2513692 C83.8862239,33.7158501 92.6576406,31.7015961 102.69244,30.5540593 C85.105467,24.929498 73.1520792,8.85319106 75.363547,2.34189162 C76.9974462,-2.46885304 91.4705601,0.913020248 105.471244,5.47050676 C110.822996,20.0833477 123.841271,30.9992418 139.65375,33.3451355 Z M89.7001379,12.911526 C90.2666558,13.7869147 90.3769706,14.3896933 91.4989933,14.3896933 C92.4369507,14.3896933 93.1988011,16.907048 93.7811448,16.2628022 C94.289826,15.7000491 94.6808115,12.0324041 94.6808115,11.2149009 C94.6808115,10.2783098 95.3273306,8.62121144 94.6808115,8.04010845 C94.1169841,7.53333026 92.3175992,8.04010845 91.4989933,8.04010845 C90.4686883,8.04010845 90.2816332,8.99289589 89.7001379,9.75056602 C89.2898452,10.2851645 88.3171751,10.4895414 88.3171751,11.2149009 C88.3171751,11.8487452 89.3793968,12.4159139 89.7001379,12.911526 Z" id="Path-23" transform="translate(107.377071, 24.898084) scale(-1, 1) translate(-107.377071, -24.898084) "></path>
                <path d="M139.598403,33.3451355 C138.361076,35.087322 136.464221,37.2947988 133.720464,40.0749974 C126.752866,47.1351371 118.304132,49.7361368 110.367394,49.796167 L109.576895,46.5419993 C109.576895,46.5419993 107.721632,46.5787269 107.721632,46.0378292 C107.721632,45.4969316 107.339201,43.3385879 107.339201,43.3385879 C107.339201,43.3385879 106.89367,46.6946335 106.308552,47.4582818 C105.723434,48.22193 104.750628,46.8696859 103.815586,46.8696859 C103.208087,46.8696859 102.133854,48.0199479 101.455799,48.8258132 C91.7722004,46.6494858 84.3933841,41.2594806 84.0945106,37.2513692 C83.830877,33.7158501 92.6022937,31.7015961 102.637093,30.5540593 C85.0501201,24.929498 73.0967323,8.85319106 75.3082001,2.34189162 C76.9420993,-2.46885304 91.4152133,0.913020248 105.415897,5.47050676 C110.767649,20.0833477 123.785924,30.9992418 139.598403,33.3451355 Z M89.644791,12.911526 C90.211309,13.7869147 90.3216237,14.3896933 91.4436464,14.3896933 C92.3816038,14.3896933 93.1434542,16.907048 93.7257979,16.2628022 C94.2344791,15.7000491 94.6254646,12.0324041 94.6254646,11.2149009 C94.6254646,10.2783098 95.2719838,8.62121144 94.6254646,8.04010845 C94.0616372,7.53333026 92.2622523,8.04010845 91.4436464,8.04010845 C90.4133415,8.04010845 90.2262864,8.99289589 89.644791,9.75056602 C89.2344983,10.2851645 88.2618283,10.4895414 88.2618283,11.2149009 C88.2618283,11.8487452 89.3240499,12.4159139 89.644791,12.911526 Z" id="Path-23" transform="translate(107.321724, 24.898084) scale(-1, 1) translate(-107.321724, -24.898084) "></path>
            </g>
            <ellipse id="Oval-10" stroke="#FFAB0B" stroke-width="3" sketch:type="MSShapeGroup" cx="69.3693694" cy="56.483214" rx="44.7747748" ry="44.7815123"></ellipse>
            <g id="Group-+-Path-22" transform="translate(26.486486, 64.954955)">
                <g id="Group" transform="translate(42.387937, 40.560615) rotate(-28.000000) translate(-42.387937, -40.560615) translate(9.595145, 12.182236)">
                    <mask id="mask-2" sketch:name="Mask" fill="white">
                        <use xlink:href="#path-1"></use>
                    </mask>
                    <use id="Mask" stroke="#FFAB0B" stroke-width="3" sketch:type="MSShapeGroup" xlink:href="#path-1"></use>
                    <mask id="mask-4" sketch:name="Mask" fill="white">
                        <use xlink:href="#path-3"></use>
                    </mask>
                    <use id="Mask" stroke="#FA4F13" stroke-width="3" fill="#FFAB0B" sketch:type="MSShapeGroup" xlink:href="#path-3"></use>
                    <path d="M13.3545256,13.0615596 C13.2232726,15.3889842 13.2633609,17.6889176 13.4442394,19.9145281 C21.1040331,37.3144311 36.5581893,40.422178 47.3643202,40.2239826 C49.2635229,39.5063794 51.1568697,38.6570909 53.0051136,37.6682044 C26.2596196,40.2237767 15.7510919,23.1810152 13.3545256,13.0615596 Z" id="Path-9" fill="#FA4F13" sketch:type="MSShapeGroup"></path>
                    <path d="M14.7929755,3.98234457 C14.3929996,5.46403718 14.0790438,6.95925425 13.8431505,8.45579736 C23.4719595,30.4441533 45.117225,34.5444926 57.3521643,35.0103065 C60.219533,33.0146172 62.8812662,30.6272825 65.1648534,27.8135223 C64.8147282,27.8885304 64.4575989,27.9657843 64.0933703,28.0453084 C32.9987615,34.8343714 18.3471496,10.9510051 14.7929755,3.98234457 Z" id="Path-9" fill="#FA4F13" sketch:type="MSShapeGroup"></path>
                    <path d="M16.515048,32.2518479 C18.1197307,36.7623335 20.2592735,40.1518452 22.4051082,41.6101347 C25.2714299,43.5580605 31.3045401,44.2046809 38.2554329,43.0965699 C27.5543563,42.801759 21.5169398,37.9563178 16.515048,32.2518479 Z" id="Path-9" fill="#FA4F13" sketch:type="MSShapeGroup"></path>
                </g>
                <path d="M37.1790599,56.029744 C37.1790599,56.029744 38.5780401,57.0527768 38.8021486,58.3403076 C39.2831371,61.1036448 39.938994,61.8326515 40.9784578,61.7994402 C42.1695915,61.7613831 41.9369533,60.8114207 42.6158979,58.3403076 C42.8055085,57.6501935 44.303799,56.029744 44.303799,56.029744 L37.1790599,56.029744 Z" id="Path-22" fill="#FA4F13" sketch:type="MSShapeGroup"></path>
            </g>
            <g id="Path-18-+-Path-19" transform="translate(96.158887, 97.983992) rotate(-5.000000) translate(-96.158887, -97.983992) translate(89.852581, 91.362370)" sketch:type="MSShapeGroup">
                <path d="M0.217697222,2.99672486 C0.217697222,2.99672486 0.931365507,12.6421379 4.51011854,12.6421379 C8.08887157,12.6421379 12.2667652,9.7030061 12.2667652,7.5305222 C12.2667652,5.3580383 6.9842948,0.171834885 6.9842948,0.171834885 L0.217697222,2.99672486 Z" id="Path-18" stroke="#FFB50A" stroke-width="3" fill="#FA4F13"></path>
                <path d="M3.257413,8.03894574 C3.257413,8.03894574 3.2626188,10.2959309 4.72544949,10.9256774 C6.18828017,11.5554239 10.8545728,8.36986952 10.8545728,8.36986952 L8.87636761,5.44631611 L3.257413,8.03894574 Z" id="Path-19" fill="#FFAB0B"></path>
            </g>
            <g id="Path-18-+-Path-19" transform="translate(42.277384, 96.520520) scale(-1, 1) rotate(-9.000000) translate(-42.277384, -96.520520) translate(35.655762, 89.583583)" sketch:type="MSShapeGroup">
                <path d="M0.233247024,3.20339554 C0.233247024,3.20339554 0.997891615,13.5140095 4.83226986,13.5140095 C8.66664811,13.5140095 13.1429627,10.3721789 13.1429627,8.04986856 C13.1429627,5.72755818 7.483173,0.183685566 7.483173,0.183685566 L0.233247024,3.20339554 Z" id="Path-18" stroke="#FFB50A" stroke-width="3" fill="#FA4F13"></path>
                <path d="M3.49008536,8.5933558 C3.49008536,8.5933558 3.49566301,11.0059951 5.06298159,11.6791724 C6.63030018,12.3523497 11.6298994,8.9471019 11.6298994,8.9471019 L9.51039387,5.82192412 L3.49008536,8.5933558 Z" id="Path-19" fill="#FFAB0B"></path>
            </g>
            <path d="M69.3693694,101.264726 C94.0977947,101.264726 114.144144,81.2153603 114.144144,56.483214 C114.144144,31.7510677 94.0977947,11.7017017 69.3693694,11.7017017 C44.6409441,11.7017017 24.5945946,31.7510677 24.5945946,56.483214 C24.5945946,81.2153603 44.6409441,101.264726 69.3693694,101.264726 Z M69.1443705,98.7893663 C92.3816345,98.7893663 111.219159,79.9490073 111.219159,56.7082467 C111.219159,33.4674861 94.4101399,31.2180164 71.1728759,31.2180164 C47.935612,31.2180164 27.0695821,33.4674861 27.0695821,56.7082467 C27.0695821,79.9490073 45.9071065,98.7893663 69.1443705,98.7893663 Z" id="Oval-10" fill="#FA4F13" sketch:type="MSShapeGroup"></path>
            <path d="M53.0736505,48.7055205 C55.6611374,46.2301605 58.1548643,46.4433093 60.5289349,48.7055205 C62.9030055,50.9677318 61.9444067,57.1583122 61.9444067,57.1583122 C61.9444067,57.1583122 61.4380498,61.697205 56.7471302,61.697205 C52.0562106,61.697205 51.5944588,57.1583122 51.5944588,57.1583122 C51.5944588,57.1583122 50.4861635,51.1808805 53.0736505,48.7055205 Z" id="Rectangle-5" fill="#FA4F13" sketch:type="MSShapeGroup" transform="translate(56.747130, 54.312619) scale(-1, 1) translate(-56.747130, -54.312619) "></path>
            <ellipse id="Oval-17" fill="#FFB10A" sketch:type="MSShapeGroup" cx="56.8189326" cy="54.9469518" rx="2.07448963" ry="2.73935955"></ellipse>
            <path d="M77.823526,48.7055205 C80.411013,46.2301605 82.9047398,46.4433093 85.2788104,48.7055205 C87.652881,50.9677318 86.6942822,57.1583122 86.6942822,57.1583122 C86.6942822,57.1583122 86.1879253,61.697205 81.4970057,61.697205 C76.8060861,61.697205 76.3443343,57.1583122 76.3443343,57.1583122 C76.3443343,57.1583122 75.236039,51.1808805 77.823526,48.7055205 Z" id="Rectangle-5" fill="#FA4F13" sketch:type="MSShapeGroup" transform="translate(81.497006, 54.312619) scale(-1, 1) translate(-81.497006, -54.312619) "></path>
            <ellipse id="Oval-17" fill="#FFB10A" sketch:type="MSShapeGroup" cx="81.5688081" cy="53.14669" rx="2.07448963" ry="2.73935955"></ellipse>
            <path d="M63.1019206,74.9451274 C69.6938706,72.3218344 76.1068304,72.7198247 82.5098306,73.4894469 C88.9128308,74.2590692 87.0859683,77.393357 87.0859683,77.393357 C86.9927227,77.6221632 86.7134929,77.8326549 86.4669714,77.8629285 L60.1220383,81.0981663 C59.8734213,81.1286972 59.5488891,80.9942796 59.4105986,80.7842079 C59.4105986,80.7842079 56.5099707,77.5684203 63.1019206,74.9451274 L63.1019206,74.9451274 Z" id="Rectangle-4" fill="#FA4F13" sketch:type="MSShapeGroup"></path>
            <ellipse id="Oval-13" fill="#FA4F13" sketch:type="MSShapeGroup" cx="96.6164154" cy="66.6635867" rx="5.17497397" ry="3.6005236"></ellipse>
            <ellipse id="Oval-13" fill="#FA4F13" sketch:type="MSShapeGroup" cx="44.2740731" cy="66.6635867" rx="5.17497397" ry="3.6005236"></ellipse>
            <path d="M36.8499399,19.962864 C36.8499399,19.962864 43.3855157,-4.86457478 50.6382136,0.901888804 C57.8909115,6.66835238 61.7440171,11.5522659 56.1911153,16.6735183 C50.6382136,21.7947707 47.4354953,9.17008338 47.4354953,9.17008338 C47.4354953,9.17008338 40.349727,14.646466 40.349727,22.1516589 C40.349727,29.6568517 36.8499399,19.962864 36.8499399,19.962864 Z" id="Path-7" fill="#FA4F13" sketch:type="MSShapeGroup" transform="translate(47.840669, 12.517139) scale(-1, 1) translate(-47.840669, -12.517139) "></path>
            <path d="M80.0497226,19.962864 C80.0497226,19.962864 86.5852984,-4.86457478 93.8379963,0.901888804 C101.090694,6.66835238 104.9438,11.5522659 99.390898,16.6735183 C93.8379963,21.7947707 90.635278,9.17008338 90.635278,9.17008338 C90.635278,9.17008338 83.5495097,14.646466 83.5495097,22.1516589 C83.5495097,29.6568517 80.0497226,19.962864 80.0497226,19.962864 Z" id="Path-7" fill="#FA4F13" sketch:type="MSShapeGroup"></path>
            <path d="M62.2909746,75.2366877 C62.2909746,75.2366877 62.0995232,78.6146551 63.9219359,78.6146551 C65.7443485,78.6146551 67.2513125,78.4336015 65.9078749,73.8718267 C63.9233756,74.4427369 62.2909746,75.2366877 62.2909746,75.2366877 Z" id="Path-48" fill="#FFAB0B" sketch:type="MSShapeGroup"></path>
            <path d="M79.8406058,73.6252576 C79.8406058,73.6252576 79.7672175,75.595173 81.0864491,75.595173 C82.4056807,75.595173 83.4313593,75.1560955 82.4588543,72.9716958 C81.0222893,73.2450754 79.8406058,73.6252576 79.8406058,73.6252576 Z" id="Path-48" fill="#FFAB0B" sketch:type="MSShapeGroup" transform="translate(81.341578, 74.283434) scale(-1, 1) translate(-81.341578, -74.283434) "></path>
            <path d="M76.9430192,79.0953152 C76.9430192,79.0953152 77.1536224,77.1353186 75.8376043,77.0432798 C74.5215863,76.951241 73.4677824,77.3176904 74.2855652,79.5646178 C75.737698,79.3921289 76.9430192,79.0953152 76.9430192,79.0953152 L76.9430192,79.0953152 Z" id="Path-48" fill="#FFAB0B" sketch:type="MSShapeGroup"></path>
            <path d="M64.3154641,80.5307296 C64.3154641,80.5307296 64.3029398,81.5811753 64.7133869,81.5811753 C65.1238341,81.5811753 65.8076197,81.5884274 65.8076197,82.2285839 C65.8076197,82.8687405 65.2240289,86.4842077 65.9078145,86.4842077 C66.5916001,86.4842077 67.6836357,86.0700728 67.0974081,84.7887707 C66.5111806,83.5074687 66.2938722,81.9035611 66.5674303,81.4930522 C66.8409885,81.0825433 69.1202009,81.4493202 69.1202007,80.6918126 C69.1202005,79.934305 69.3201509,79.9567204 69.3201509,79.9567204 L64.3154641,80.5307296 Z" id="Path-52" fill="#FA4F13" sketch:type="MSShapeGroup"></path>
            <path d="M79.8151176,78.6915706 C79.8151176,78.6915706 79.4440013,79.695867 80.2207308,79.695867 C80.9974603,79.695867 85.2867208,78.909571 85.8120845,79.302719 C86.3374482,79.695867 86.7061473,81.501403 86.4154506,81.8829038 C86.124754,82.2644046 85.494801,84.8553572 86.488839,85.3612413 C87.4828771,85.8671254 89.5028129,85.5719901 89.0339189,84.1037834 C88.5650249,82.6355767 87.6489892,82.379558 87.6489893,81.0377125 C87.6489895,79.695867 87.830043,76.3715799 87.598013,76.1003978 C87.3659831,75.8292158 87.1655932,77.5661872 86.4888389,77.5661872 C85.8120846,77.5661872 79.8151176,78.6915706 79.8151176,78.6915706 Z" id="Path-53" fill="#FA4F13" sketch:type="MSShapeGroup"></path>
        </g>
    </g>
</svg>