<svg width="122" height="204" viewBox="0 0 122 204" xmlns="http://www.w3.org/2000/svg"><title>Slice 5</title><g fill="none" fill-rule="evenodd"><path d="M52.572 182.213c.202-2.568-.207-6.59-.207-6.59h3.116s-.97.52-.97 7.22c0 6.697 3.505 11.664 2.106 14.173-1.4 2.508-7.834 2.482-6.65-3.556 1.185-6.037 2.2-8.146 2.54-10.618a9.77 9.77 0 0 0 .067-.63z" fill="#F54040"/><path d="M52.195 165.59c17.933 1.884 63.983-29.965 68.688-74.73 4.705-44.765-18.42-83.885-51.65-87.378C36.003-.01 5.253 33.447.547 78.212c-4.705 44.765 33.717 85.493 51.65 87.378z" stroke="#936A06" stroke-width="7" fill="#FFF200"/><path d="M9.02 122.86a104.936 104.936 0 0 0 7.117 12.56c27.79 19.854 57.653 15.062 79.477 6.264 4.432-4.587 8.612-9.74 12.26-15.37-42.99 26.212-83.29 6.44-98.853-3.454z" fill="#000"/><path d="M2.157 103.312a88.605 88.605 0 0 0 2.267 8.143c42.027 38.374 91.338 13.444 110.97.642 1.94-4.668 3.473-9.56 4.486-14.642l-1.776 1.498c-51.45 43.52-102.423 13.76-115.947 4.36zm25.763 46.856c8.77 9.07 17.842 14.745 24.275 15.422 6.368.67 16.282-2.916 26.63-9.822-19.656 3.748-37.464-.244-50.906-5.6z" fill="#000"/><path d="M46.688 163.453s1.95 2.158 2.423 4.874c1.017 5.83 2.4 7.367 4.593 7.297 2.513-.08 2.022-2.084 3.454-7.297.4-1.456 3.56-4.874 3.56-4.874h-14.03z" fill="#000"/></g></svg>