<svg width="199" height="199" viewBox="0 0 199 199" xmlns="http://www.w3.org/2000/svg" xmlns:xlink="http://www.w3.org/1999/xlink"><title>Group 4</title><defs><linearGradient x1="50%" y1="18.45%" x2="50%" y2="100%" id="a"><stop stop-color="#FFF649" offset="0%"/><stop stop-color="#FFD500" offset="100%"/></linearGradient><circle id="b" cx="99.5" cy="99.5" r="99.5"/></defs><g fill="none" fill-rule="evenodd"><use fill="url(#a)" xlink:href="#b"/><use fill-opacity=".784" fill="#FFF" xlink:href="#b"/><path d="M99.5 199c54.952 0 99.5-44.548 99.5-99.5S154.452 0 99.5 0 0 44.548 0 99.5 44.548 199 99.5 199zm-.5-5.5c51.64 0 93.5-41.86 93.5-93.5s-37.354-56.637-88.992-56.637C51.868 43.363 5.5 48.36 5.5 100s41.86 93.5 93.5 93.5z" fill="#825F09"/><path d="M99.5 199c54.952 0 99.5-44.548 99.5-99.5S154.452 0 99.5 0 0 44.548 0 99.5 44.548 199 99.5 199zm-.5-2.818c53.483 0 96.84-43.357 96.84-96.84 0-53.484-38.688-64.66-92.17-64.66-53.484 0-101.51 11.176-101.51 64.66 0 53.483 43.357 96.84 96.84 96.84z" fill="#533C03"/><ellipse fill="#F54040" cx="43.5" cy="118" rx="11.5" ry="8"/><ellipse fill="#F54040" cx="160.5" cy="121" rx="11.5" ry="8"/></g></svg>