<svg width="145" height="108" viewBox="0 0 145 108" xmlns="http://www.w3.org/2000/svg"><title>Group 5</title><g stroke-width="2" fill="none" fill-rule="evenodd"><path d="M26.025 45.858c9.105 7.716 20.477 14.57 33.32 18.69C38.85 66.89 20.94 71.007 21.48 78.244c1.252 16.723 62.587 45.222 101.39 5.822 33.03-33.54 5.95-26.357-2.837-23.478 56.404-24.425.733-26.537.733-26.537S10.182-12.812 3.538 6.795C1.19 13.722 6.656 25.937 17.49 37.69l2.15-4.865-.7-8.825s3.584 10.353 8.812 10.353-.233 3.102-.233 3.102l3.377 1.035 4.076-7.675s-3.083 11.607-1.54 11.607c1.54 0 2.315 6.09 2.315 6.09l-8.388-7.544-1.335 4.89zM52 95.002c1.466.47 1.78 1.998 3.5 1.998 1.556 0 2.422-3.345 3.775-3.734C63.447 92.066 67 92.336 67 89c0-1.054-4.617-.5-4.85-1.76-.496-2.698 2.817-7.226 0-8.054C60.777 78.78 57.09 81 55.5 81c-2.267 0-1.718 5.453-3.5 6.24-3.207 1.42-8-1.08-8 1.76 0 3.222 4.054 4.735 8 6.002z" stroke="#44C0FF" fill="#FFF"/><path d="M18.996 24.702c-1.635-3.874-2.11-7.336-1.228-9.936 5.347-15.78 93.9 19.53 93.9 19.53s46.9 1.78-3.883 22.75c-29.04 11.99-56.053 1.602-72.86-12.443-.372-1.186-.87-2.18-1.493-2.18-1.542 0 1.54-11.608 1.54-11.608l-4.075 7.675-3.378-1.035s5.46-3.102.232-3.102S18.942 24 18.942 24l.054.702zM45.432 87.59c-3.655-2.797-5.886-5.785-6.08-8.374-.884-11.82 67.88-11.86 67.88-11.86s31.205-11.872 3.78 15.975C94.958 99.633 73.448 99.49 58.192 94.197c.34-.456.69-.817 1.083-.93C63.447 92.066 67 92.336 67 89c0-1.054-4.617-.5-4.85-1.76-.496-2.698 2.817-7.226 0-8.054C60.777 78.78 57.09 81 55.5 81c-2.267 0-1.718 5.453-3.5 6.24-2.108.934-4.9.173-6.568.35z" stroke="#A7E2FF" opacity=".447" fill="#E3F6FF"/></g></svg>