<svg width="50" height="56" viewBox="0 0 50 56" xmlns="http://www.w3.org/2000/svg"><title>Group 2</title><g fill="none" fill-rule="evenodd"><path d="M49.082 44.355S34.56-10.81 18.442 2.005C2.323 14.814-6.24 25.667 6.1 37.046c12.34 11.38 19.457-16.672 19.457-16.672S41.304 32.543 41.304 49.22c0 16.675 7.777-4.865 7.777-4.865z" fill="#000"/><path d="M8.056 33.956c-2.56-2.495-3.255-6.948-1.75-8.265 3.788-3.316 13.3-4.766 13.3-4.766s2.176 2.236.83 5.756c-1.348 3.52-3.215 8.976-6.62 8.976-1.255 0-4.267-.245-5.76-1.7z" fill="#FFF200"/></g></svg>