<svg width="71" height="33" viewBox="0 0 71 33" xmlns="http://www.w3.org/2000/svg"><title>Group 7</title><g fill="none" fill-rule="evenodd"><path d="M11.572 6.52c14.65-5.828 28.9-4.944 43.13-3.234C68.93 4.996 64.87 11.96 64.87 11.96c-.207.51-.827.976-1.375 1.044L4.95 20.192c-.552.068-1.273-.23-1.58-.698 0 0-6.447-7.145 8.202-12.973z" fill="#281C00"/><path d="M59.5 13.794l-48.843 5.134c.72-2.417 2.675-6.02 7.972-7.304C26.88 9.626 51.53 5.52 59.35 13.63c.052.055.102.11.15.164z" fill="#825F09"/><path d="M9.77 7.168s-.425 7.506 3.625 7.506 7.398-.402 4.413-10.538C13.398 5.404 9.77 7.168 9.77 7.168zm45.67-3.58s.164 4.377-2.768 4.377-5.21-.976-3.05-5.83a54.56 54.56 0 0 1 5.82 1.453zM42.33 15.742s.468-4.355-2.456-4.56c-2.925-.204-5.266.61-3.45 5.603 3.228-.384 5.906-1.043 5.906-1.043z" fill="#FFF"/><path d="M14.27 18.93s-.03 2.335.883 2.335c.912 0 2.432.016 2.432 1.44 0 1.42-1.297 9.454.223 9.454s3.946-.92 2.643-3.77c-1.3-2.846-1.783-6.41-1.176-7.322.608-.913 5.673-.098 5.673-1.78 0-1.684.445-1.634.445-1.634L14.27 18.93zm34.443-4.085s-.825 2.23.9 2.23c1.727 0 11.26-1.746 12.427-.872 1.167.873 1.986 4.885 1.34 5.733-.646.847-2.046 6.604.163 7.728 2.21 1.124 6.698.468 5.656-2.794-1.044-3.262-3.08-3.83-3.08-6.812s.403-10.368-.113-10.97c-.515-.603-.96 3.256-2.465 3.256-1.503 0-14.83 2.5-14.83 2.5z" fill="#F54040"/></g></svg>