<svg width="145" height="108" viewBox="0 0 145 108" xmlns="http://www.w3.org/2000/svg"><title>Group 5</title><g stroke-width="2" fill="none" fill-rule="evenodd"><path d="M69.135 104.947c-16.217-.114-33.48-5.43-47.712-19.882-33.032-33.54-5.95-26.357 2.837-23.478-56.404-24.425-.733-26.537-.733-26.537S134.11-11.812 140.755 7.795c4.517 13.328-19.892 46.232-55.808 57.754 20.495 2.34 38.407 6.456 37.865 13.693-.614 8.206-15.695 19.247-35.482 23.71-1.386-1.65-3.573-3.993-4.81-3.993-1.912 0-3.9 2.77-5.094 1.205-1.196-1.563-2.106-8.435-2.106-8.435s-.78 4.42-.78 5.527c0 1.107-3.79 1.032-3.79 1.032l-1.615 6.657zm42.332-75.512c-1.157 1.792-1.382 3.026-3.674 3.026-1.916 0-3.473 5.155-4.662 3.836-1.04-1.152-1.837-8.66-1.837-10.335 0-1.916-1.32-5.31 0-6.5 1.15-1.036 4.827 0 6.5 0 2.104 0 2.487 1.952 3.674 3.503.84 1.095 2.826 1.513 2.826 2.998 0 1.3-2.17 2.46-2.826 3.475z" stroke="#44C0FF" fill="#FFF"/><path d="M76.458 97.707c15.835-2.467 28.455-11.17 28.928-17.49.885-11.82-67.878-11.862-67.878-11.862s-31.206-11.87-3.78 15.976c11.03 11.2 24.634 14.637 37.017 13.976l.004-.017h.288c.642-.038 1.28-.087 1.915-.146.834-.135 1.586-.394 1.586-.887 0-1.108.78-5.527.78-5.527s.453 3.415 1.138 5.977zm50.513-81.94c5.35 15.78-39.232 63.248-90.016 42.278-50.784-20.97-3.883-22.75-3.883-22.75s88.554-35.31 93.9-19.53zm-15.503 13.668c-1.157 1.792-1.382 3.026-3.674 3.026-1.916 0-3.473 5.155-4.662 3.836-1.04-1.152-1.837-8.66-1.837-10.335 0-1.916-1.32-5.31 0-6.5 1.15-1.036 4.827 0 6.5 0 2.104 0 2.487 1.952 3.674 3.503.84 1.095 2.826 1.513 2.826 2.998 0 1.3-2.17 2.46-2.826 3.475z" stroke="#A7E2FF" opacity=".447" fill="#E3F6FF"/></g></svg>